<svg width="64" height="64" viewBox="0 0 64 64" fill="none" xmlns="http://www.w3.org/2000/svg">
    <defs>
        <linearGradient id="lilyGradient" x1="32" y1="0" x2="32" y2="64" gradientUnits="userSpaceOnUse">
            <stop stop-color="#d7b0ecff"/> <stop offset="1" stop-color="#cfcdd1ff"/> </linearGradient>
    </defs>
    
    <path d="M12 20C18 24 24 28 32 28C40 28 46 24 52 20C50 35 40 45 32 45C24 45 14 35 12 20Z" fill="#E0AAFF" opacity="0.5"/>
    
    <path d="M32 58C32 58 18 40 18 24C18 14 26 6 32 6C38 6 46 14 46 24C46 40 32 58 32 58Z" fill="url(#lilyGradient)"/>
    
    <path d="M32 48C32 48 38 30 38 24C38 20 36 16 32 16C28 16 26 20 26 24C26 30 32 48 32 48Z" fill="white" opacity="0.3"/>
</svg>